<svg xmlns="http://www.w3.org/2000/svg" viewBox="0 0 1024 1024">
<defs>
<linearGradient id="bg" x1="0" x2="0" y1="0" y2="1">
<stop offset="0%" stop-color="rgb(34,193,223)"/>
<stop offset="100%" stop-color="rgb(47,128,237)"/>
</linearGradient>
<clipPath id="clip"><rect width="1024" height="1024" rx="220" ry="220"/></clipPath>
</defs>
<g clip-path="url(#clip)">
<rect width="1024" height="1024" fill="url(#bg)"/>
<rect x="380" y="230" width="264" height="92" rx="40" fill="white"/>
<rect x="438" y="300" width="148" height="120" fill="white"/>
<circle cx="512" cy="542" r="212" fill="white"/>
<polygon points="512,930 330,710 694,710" fill="white"/>
<circle cx="512" cy="542" r="160" fill="rgb(240,250,255)"/>
<path d="M360 530 C430 525,470 520,540 540 C590 555,620 520,664 530 L664 688 L360 688 Z" fill="rgb(67,198,233)"/>
<path d="M350 560 C430 520,520 585,674 540" fill="none" stroke="white" stroke-width="18" stroke-linecap="round"/>
<circle cx="470" cy="430" r="34" fill="white"/>
<circle cx="560" cy="470" r="20" fill="white"/>
<circle cx="430" cy="560" r="16" fill="white"/>
<circle cx="580" cy="610" r="32" fill="white"/>
<circle cx="560" cy="120" r="28" fill="rgb(240,250,255)"/>
<circle cx="640" cy="80" r="24" fill="rgb(240,250,255)"/>
</g></svg>